<svg width="366" height="416" viewBox="0 0 366 416" fill="none" xmlns="http://www.w3.org/2000/svg">
<circle cx="180.75" cy="208.964" r="112.821" fill="#ECF6EF"/>
<circle cx="75.0005" cy="132.785" r="7.07143" fill="#ECF6EF"/>
<circle cx="257.893" cy="104.821" r="13.1786" fill="#ECF6EF"/>
<circle cx="77.2506" cy="281.607" r="12.5357" fill="#ECF6EF"/>
<circle cx="301.608" cy="269.393" r="12.5357" fill="#ECF6EF"/>
<circle cx="277.179" cy="283.535" r="6.10714" fill="#ECF6EF"/>
<path d="M199.58 113.845C199.207 113.766 199.207 113.234 199.58 113.155L205.215 111.956C205.351 111.927 205.457 111.821 205.486 111.686L206.7 106.09C206.78 105.72 207.309 105.72 207.389 106.09L208.603 111.686C208.632 111.821 208.738 111.927 208.874 111.956L214.509 113.155C214.882 113.234 214.882 113.766 214.509 113.845L208.874 115.043C208.738 115.072 208.632 115.178 208.603 115.314L207.389 120.909C207.309 121.28 206.78 121.28 206.7 120.909L205.486 115.314C205.457 115.178 205.351 115.072 205.215 115.043L199.58 113.845Z" fill="#219653"/>
<path d="M62.2866 213.542C62.4305 212.863 63.4006 212.863 63.5445 213.542L65.6934 223.695C65.7458 223.942 65.9384 224.136 66.1855 224.19L76.2331 226.379C76.9078 226.526 76.9078 227.488 76.2331 227.635L66.1855 229.824C65.9384 229.878 65.7458 230.071 65.6934 230.319L63.5445 240.471C63.4006 241.151 62.4305 241.151 62.2866 240.471L60.1377 230.319C60.0853 230.071 59.8927 229.878 59.6456 229.824L49.5981 227.635C48.9234 227.488 48.9234 226.526 49.5981 226.379L59.6456 224.19C59.8927 224.136 60.0853 223.942 60.1377 223.695L62.2866 213.542Z" fill="#219653"/>
<path d="M281.579 135.757C281.723 135.077 282.693 135.077 282.837 135.757L284.091 141.679C284.143 141.927 284.336 142.12 284.583 142.174L290.461 143.455C291.136 143.602 291.136 144.564 290.461 144.711L284.583 145.992C284.336 146.046 284.143 146.239 284.091 146.487L282.837 152.409C282.693 153.089 281.723 153.089 281.579 152.409L280.326 146.487C280.273 146.239 280.081 146.046 279.834 145.992L273.955 144.711C273.281 144.564 273.281 143.602 273.955 143.455L279.834 142.174C280.081 142.12 280.273 141.927 280.326 141.679L281.579 135.757Z" fill="#219653"/>
<path d="M307.495 230.713L309.464 240.013L318.631 242.01L309.464 244.007L307.495 253.308L305.527 244.007L296.359 242.01L305.527 240.013L307.495 230.713Z" fill="white"/>
<path d="M130.039 162.821L130.069 162.836L130.099 162.85C133.933 164.518 136.697 165.964 138.604 167.239C140.54 168.534 141.456 169.563 141.8 170.343C142.088 170.997 142.017 171.565 141.541 172.251C141.012 173.014 140.026 173.836 138.598 174.76C137.227 175.648 135.568 176.558 133.737 177.561L133.582 177.646C131.706 178.675 129.674 179.794 127.696 181.045C123.76 183.535 119.882 186.64 117.761 190.842C115.623 195.075 115.654 199.982 116.282 204.539C116.597 206.829 117.071 209.077 117.525 211.15C117.583 211.416 117.641 211.679 117.698 211.938C118.089 213.718 118.446 215.338 118.668 216.775C118.926 218.444 118.973 219.7 118.765 220.566C118.666 220.979 118.52 221.253 118.353 221.439C118.193 221.618 117.963 221.774 117.594 221.874C116.795 222.092 115.416 222.03 113.143 221.347C110.923 220.68 108.006 219.471 104.209 217.592C93.8944 210.371 86.7587 202.998 83.1451 195.609C79.5531 188.265 79.4142 180.86 83.1894 173.384C90.7055 158.5 111.577 153.499 130.039 162.821Z" fill="#CCEBDB" stroke="#219653" stroke-width="2.35294"/>
<path d="M40.7561 157.881L41.5247 157.818C56.8935 156.546 72.2754 160.111 85.5176 168.015V168.015" stroke="#219653" stroke-width="2.35294"/>
<path d="M36.081 166.656L37.3627 166.546C52.5537 165.24 67.7761 168.676 80.9329 176.381V176.381" stroke="#219653" stroke-width="2.35294"/>
<path d="M159.086 211.709C154.673 220.448 149.675 227.553 143.155 231.135C136.74 234.659 128.598 234.899 117.535 229.313C103.313 222.131 98.3771 202.57 107.035 185.425C115.687 168.291 134.341 160.65 148.559 167.809C160 174.335 164.624 181.039 165.513 188.043C166.417 195.17 163.517 202.934 159.086 211.709Z" fill="#CCEBDB" stroke="#219653" stroke-width="2.35294"/>
<ellipse cx="139.503" cy="201.734" rx="24.5816" ry="33.8277" transform="rotate(-155.936 139.503 201.734)" fill="white"/>
<path d="M162.068 213.215C157.737 221.792 151.255 228.213 144.326 231.686C137.398 235.16 130.102 235.658 123.995 232.574C117.888 229.491 113.958 223.323 112.64 215.686C111.322 208.048 112.641 199.021 116.972 190.443C121.303 181.866 127.785 175.446 134.714 171.972C141.642 168.499 148.938 168 155.045 171.084C161.152 174.168 165.082 180.335 166.4 187.973C167.718 195.61 166.399 204.638 162.068 213.215Z" fill="white" stroke="#219653" stroke-width="2.35294"/>
<path d="M143.105 191.478C144.452 188.811 147.413 187.802 149.626 188.919C151.839 190.037 152.785 193.019 151.438 195.686C150.091 198.353 147.13 199.363 144.917 198.245C142.704 197.128 141.758 194.146 143.105 191.478Z" fill="#219653" stroke="#219653" stroke-width="2.35294"/>
<path d="M133.572 210.354C134.919 207.687 137.88 206.677 140.093 207.795C142.306 208.912 143.252 211.894 141.905 214.562C140.558 217.229 137.597 218.238 135.384 217.121C133.171 216.003 132.225 213.021 133.572 210.354Z" fill="#219653" stroke="#219653" stroke-width="2.35294"/>
<path d="M200.142 203.778L200.18 203.758L200.217 203.736C223.917 189.62 252.269 194.283 263.733 213.53C275.197 232.776 265.794 259.928 242.095 274.044L242.065 274.062L242.037 274.081C238.669 276.362 236.003 277.811 233.891 278.596C231.768 279.386 230.33 279.458 229.34 279.168C228.398 278.891 227.668 278.228 227.071 277.06C226.459 275.863 226.035 274.219 225.715 272.165C225.396 270.121 225.193 267.772 224.973 265.195L224.961 265.059C224.745 262.535 224.513 259.811 224.138 257.035C223.376 251.389 222.015 245.416 218.921 240.222C215.829 235.03 211.23 230.953 206.633 227.551C204.379 225.884 202.105 224.363 199.995 222.952L199.861 222.862C197.702 221.418 195.734 220.099 194.089 218.827C192.436 217.549 191.191 216.38 190.428 215.264C189.682 214.174 189.45 213.218 189.653 212.275C189.866 211.285 190.608 210.08 192.308 208.629C193.999 207.184 196.537 205.582 200.142 203.778Z" fill="#CCEBDB" stroke="#219653" stroke-width="2.35294"/>
<path d="M310.96 177.234L310.484 178.14C300.973 196.258 286.035 210.949 267.761 220.156V220.156" stroke="#219653" stroke-width="2.35294"/>
<path d="M304.459 165.751L303.67 167.265C294.324 185.209 279.645 199.813 261.653 209.066V209.066" stroke="#219653" stroke-width="2.35294"/>
<path d="M166.296 218.879L173.275 214.722L178.985 211.32" stroke="#219653" stroke-width="2.35294"/>
<path d="M176.028 212.122L176.079 212.098L176.126 212.07C194.519 201.114 220.159 209.644 233.278 231.671C246.395 253.691 241.69 280.291 223.308 291.251C208.045 299.785 197.116 300.239 188.43 296.101C179.624 291.905 172.819 282.866 166.143 271.659C159.498 260.503 154.873 248.947 155.436 238.555C155.715 233.387 157.277 228.5 160.531 224.06C163.79 219.611 168.79 215.553 176.028 212.122Z" fill="#CCEBDB" stroke="#219653" stroke-width="2.35294"/>
<path d="M162.337 273.927C155.774 262.909 153.172 250.999 154.221 240.678C155.27 230.356 159.951 221.706 167.879 216.983C175.807 212.261 185.643 212.265 195.218 216.259C204.793 220.252 214.027 228.212 220.59 239.23C227.152 250.248 229.754 262.158 228.705 272.479C227.656 282.8 222.976 291.451 215.047 296.173C207.119 300.896 197.283 300.892 187.708 296.898C178.133 292.905 168.9 284.945 162.337 273.927Z" fill="white" stroke="#219653" stroke-width="2.35294"/>
<path d="M202.198 264.175C203.844 266.939 202.938 270.514 200.174 272.16L161.89 294.963C159.127 296.609 155.552 295.703 153.906 292.94C152.26 290.176 153.166 286.601 155.929 284.955L194.213 262.152C196.977 260.506 200.552 261.412 202.198 264.175Z" fill="#ECF6EF" stroke="#219653" stroke-width="2.35294"/>
<path d="M186.126 239.747C187.773 242.51 186.867 246.085 184.103 247.731L145.819 270.535C143.055 272.181 139.48 271.275 137.834 268.511C136.188 265.748 137.094 262.173 139.858 260.527L178.142 237.723C180.906 236.077 184.48 236.983 186.126 239.747Z" fill="#ECF6EF" stroke="#219653" stroke-width="2.35294"/>
</svg>
