<svg width="300" height="300" viewBox="0 0 300 300" fill="none" xmlns="http://www.w3.org/2000/svg">
<circle cx="150.268" cy="140.089" r="94.0179" fill="#ECF6EF"/>
<circle cx="62.143" cy="76.6071" r="5.89286" fill="#ECF6EF"/>
<circle cx="182.946" cy="35.0893" r="10.9821" fill="#ECF6EF"/>
<circle cx="70.9822" cy="215.089" r="10.4464" fill="#ECF6EF"/>
<circle cx="250.982" cy="190.446" r="10.4464" fill="#ECF6EF"/>
<circle cx="230.625" cy="202.232" r="5.08929" fill="#ECF6EF"/>
<path d="M155.639 50.6448C155.328 50.5788 155.328 50.1355 155.639 50.0694L160.335 49.0708C160.448 49.0468 160.536 48.9586 160.561 48.8455L161.572 44.1827C161.639 43.8736 162.08 43.8736 162.147 44.1827L163.158 48.8455C163.182 48.9586 163.271 49.0468 163.384 49.0708L168.08 50.0694C168.391 50.1355 168.391 50.5788 168.08 50.6448L163.384 51.6434C163.271 51.6675 163.182 51.7557 163.158 51.8687L162.147 56.5316C162.08 56.8406 161.639 56.8406 161.572 56.5316L160.561 51.8687C160.536 51.7557 160.448 51.6675 160.335 51.6434L155.639 50.6448Z" fill="#219653"/>
<path d="M48.3337 146.583C48.4536 146.017 49.2621 146.017 49.3819 146.583L51.1727 155.043C51.2164 155.25 51.3769 155.411 51.5828 155.456L59.9557 157.28C60.518 157.402 60.518 158.204 59.9557 158.327L51.5828 160.151C51.3769 160.196 51.2164 160.357 51.1727 160.563L49.3819 169.024C49.2621 169.59 48.4536 169.59 48.3337 169.024L46.5429 160.563C46.4993 160.357 46.3388 160.196 46.1329 160.151L37.7599 158.327C37.1977 158.204 37.1977 157.402 37.7599 157.28L46.1329 155.456C46.3388 155.411 46.4993 155.25 46.5429 155.043L48.3337 146.583Z" fill="#219653"/>
<path d="M234.292 79.0832C234.412 78.5168 235.22 78.5168 235.34 79.0832L236.385 84.0187C236.428 84.2249 236.589 84.3864 236.795 84.4312L241.693 85.4984C242.256 85.6209 242.256 86.4228 241.693 86.5452L236.795 87.6124C236.589 87.6573 236.428 87.8187 236.385 88.0249L235.34 92.9605C235.22 93.5268 234.412 93.5268 234.292 92.9605L233.247 88.0249C233.203 87.8187 233.043 87.6573 232.837 87.6124L227.939 86.5452C227.376 86.4228 227.376 85.6209 227.939 85.4984L232.837 84.4312C233.043 84.3864 233.203 84.2249 233.247 84.0187L234.292 79.0832Z" fill="#219653"/>
<path d="M255.889 158.213L257.529 165.963L265.169 167.628L257.529 169.292L255.889 177.042L254.248 169.292L246.608 167.628L254.248 165.963L255.889 158.213Z" fill="white"/>
<path d="M203.572 97.5L76.8751 145.982L103.929 221.25L120.268 228.482L140.625 232.768L161.25 231.964L173.304 229.821L184.018 226.607L201.697 217.5L216.697 205.714L217.855 204.217C224.392 195.767 230.188 186.768 235.179 177.321L203.572 97.5Z" fill="#ECF6EF"/>
<path d="M86.5179 124.554L73.125 117.054L189.375 73.125L183.214 88.3929L187.768 102.589L91.6071 139.286L86.5179 124.554Z" fill="#BDE4CB"/>
<path d="M103.393 220.982V220.982C115.115 226.976 127.806 230.846 140.878 232.415L141.205 232.454L150.525 232.454C157.506 232.454 164.467 231.711 171.291 230.238L173.601 229.739C180.897 228.164 187.942 225.591 194.536 222.094V222.094C199.681 219.366 204.518 216.093 208.964 212.331L210.407 211.11C214.265 207.845 217.845 204.265 221.11 200.407V200.407C225.681 195.004 229.608 189.088 232.81 182.777L235.714 177.054" stroke="#219653" stroke-width="2.14286"/>
<path d="M75.8474 144.865L103.929 221.5" stroke="#219653" stroke-width="2.14286"/>
<path d="M204.687 97.4542L235.494 177.949" stroke="#219653" stroke-width="2.14286"/>
<path d="M71.0261 117.276L191.023 72.1855" stroke="#219653" stroke-width="2.14286"/>
<path d="M75.2269 146.245L202.999 96.9703L184.163 88.2226C183.622 87.9714 183.39 87.3269 183.647 86.7888L190.207 73.0629" stroke="#219653" stroke-width="2.14286"/>
<path d="M72.1027 116.906L85.6093 124.147C86.1227 124.422 86.3221 125.057 86.0582 125.577L75.8475 145.668" stroke="#219653" stroke-width="2.14286"/>
<path d="M71.5618 115.936L80.2647 137.691" stroke="#219653" stroke-width="2.14286"/>
<path d="M86.25 125.357L91.6071 140.357" stroke="#219653" stroke-width="2.14286"/>
<path d="M183.75 87.8571L189.107 103.393" stroke="#219653" stroke-width="2.14286"/>
<path d="M190.301 73.3138L197.99 94.5078" stroke="#219653" stroke-width="2.14286"/>
<circle cx="126.161" cy="139.018" r="5.625" fill="#BDE4CB"/>
<circle cx="118.125" cy="110.089" r="4.01786" fill="#ECF6EF"/>
<circle cx="161.518" cy="125.625" r="5.625" fill="#BDE4CB"/>
<circle cx="142.768" cy="100.982" r="4.01786" fill="#ECF6EF"/>
</svg>
