<svg width="360" height="360" viewBox="0 0 360 360" fill="none" xmlns="http://www.w3.org/2000/svg">
<circle cx="178.381" cy="193.118" r="112.821" fill="#ECF6EF"/>
<circle cx="88.0753" cy="98.9378" r="7.07143" fill="#ECF6EF"/>
<circle cx="118.627" cy="67.8214" r="13.1786" fill="#ECF6EF"/>
<circle cx="74.8809" cy="265.76" r="12.5357" fill="#ECF6EF"/>
<circle cx="293.468" cy="226.607" r="3.53571" fill="#ECF6EF"/>
<path d="M197.21 97.9985C196.837 97.9193 196.837 97.3874 197.21 97.3081L202.845 96.1098C202.981 96.0809 203.087 95.9751 203.117 95.8394L204.33 90.244C204.41 89.8731 204.939 89.8731 205.02 90.244L206.233 95.8394C206.263 95.9751 206.369 96.0809 206.505 96.1098L212.14 97.3081C212.512 97.3874 212.512 97.9193 212.14 97.9985L206.505 99.1969C206.369 99.2257 206.263 99.3316 206.233 99.4673L205.02 105.063C204.939 105.434 204.41 105.434 204.33 105.063L203.117 99.4673C203.087 99.3316 202.981 99.2257 202.845 99.1969L197.21 97.9985Z" fill="#019B4D"/>
<path d="M281.441 259.816C281.57 259.204 282.443 259.204 282.572 259.816L284.505 268.949C284.553 269.172 284.726 269.346 284.948 269.394L293.987 271.363C294.594 271.496 294.594 272.361 293.987 272.494L284.948 274.463C284.726 274.511 284.553 274.685 284.505 274.908L282.572 284.041C282.443 284.653 281.57 284.653 281.441 284.041L279.507 274.908C279.46 274.685 279.287 274.511 279.065 274.463L270.026 272.494C269.419 272.361 269.419 271.496 270.026 271.363L279.065 269.394C279.287 269.346 279.46 269.172 279.507 268.949L281.441 259.816Z" fill="#019B4D"/>
<path d="M154.496 93.9862C154.596 93.5154 155.268 93.5154 155.368 93.9862L156.236 98.089C156.272 98.2604 156.406 98.3946 156.577 98.4319L160.649 99.319C161.116 99.4208 161.116 100.087 160.649 100.189L156.577 101.076C156.406 101.114 156.272 101.248 156.236 101.419L155.368 105.522C155.268 105.993 154.596 105.993 154.496 105.522L153.628 101.419C153.592 101.248 153.458 101.114 153.287 101.076L149.215 100.189C148.748 100.087 148.748 99.4208 149.215 99.319L153.287 98.4319C153.458 98.3946 153.592 98.2604 153.628 98.089L154.496 93.9862Z" fill="#019B4D"/>
<path d="M112.428 228.36C126.902 224.212 118.563 227.166 126.989 223.994C133.351 220.252 139.919 216.807 147.683 215.058C154.28 213.573 154.118 213.76 161.341 214.115C164.791 215.176 167.645 217.492 168.179 220.209C168.621 222.454 164.097 225.776 161.341 227C151.042 231.577 156.063 229.173 148.536 231.265C134.558 235.152 119.514 241.799 113.641 252.138C110.454 257.749 109.682 264.271 112.469 269.432C116.372 276.659 128.343 282.667 140.231 281.631C144.997 281.215 150.55 280.31 155.124 278.894C159.96 277.397 163.128 276.239 167.303 273.916C176.987 268.527 188.528 261.526 197.965 255.916" stroke="#019B4D" stroke-width="2.35294" stroke-linecap="round" stroke-dasharray="5.61 5.61"/>
<path d="M295.806 155.317C299.231 117.929 271.698 84.8432 234.309 81.4186C196.921 77.9941 163.835 105.527 160.411 142.916C159.642 151.307 160.433 159.485 162.547 167.16C166.032 184.333 175.557 202.218 185.679 217.461C195.821 232.734 206.627 245.447 212.743 252.267C215.988 255.885 221.363 256.35 225.203 253.388C233.228 247.196 248.183 234.971 262.152 219.824C276.084 204.718 289.168 186.564 293.284 168.491C294.534 164.27 295.39 159.866 295.806 155.317Z" fill="#ECF6EF" stroke="#019B4D" stroke-width="2.35294"/>
<path d="M254.624 151.545C255.965 136.902 245.181 123.943 230.537 122.602C215.894 121.261 202.935 132.045 201.594 146.688C200.253 161.332 211.036 174.29 225.68 175.632C240.324 176.973 253.282 166.189 254.624 151.545Z" fill="white" stroke="#019B4D" stroke-width="2.35294"/>
<path d="M121.757 173.805L121.758 173.843L121.762 173.881C122.534 181.343 119.865 190.192 116.308 198.186C112.768 206.144 108.428 213.081 106.045 216.662C105.376 217.668 104.095 217.975 103.052 217.387C99.6684 215.48 93.6036 211.844 87.4676 207.099C81.314 202.34 75.1789 196.535 71.5635 190.308L71.5429 190.272L71.5199 190.238C69.7123 187.572 68.3458 184.538 67.5503 181.216C64.0153 166.453 73.1178 151.619 87.8814 148.084C102.645 144.548 117.479 153.651 121.014 168.415C121.446 170.218 121.689 172.022 121.757 173.805Z" fill="#019B4D" stroke="#019B4D" stroke-width="2.35294"/>
<path d="M106.046 171.999C104.49 165.502 97.9624 161.496 91.4656 163.052C84.9688 164.607 80.9631 171.135 82.5187 177.632C84.0744 184.129 90.6022 188.135 97.099 186.579C103.596 185.023 107.601 178.495 106.046 171.999Z" fill="white" stroke="#019B4D" stroke-width="2.35294"/>
</svg>
