<svg width="360" height="360" viewBox="0 0 360 360" fill="none" xmlns="http://www.w3.org/2000/svg">
<circle cx="178.393" cy="198.318" r="112.821" fill="#ECF6EF"/>
<circle cx="72.6432" cy="122.139" r="7.07143" fill="#ECF6EF"/>
<circle cx="255.536" cy="94.174" r="13.1786" fill="#ECF6EF"/>
<circle cx="74.8926" cy="270.96" r="12.5357" fill="#ECF6EF"/>
<circle cx="299.25" cy="258.745" r="12.5357" fill="#ECF6EF"/>
<circle cx="274.822" cy="272.889" r="6.10714" fill="#ECF6EF"/>
<path d="M197.222 103.198C196.849 103.119 196.849 102.587 197.222 102.508L202.857 101.309C202.993 101.281 203.099 101.175 203.129 101.039L204.342 95.4436C204.422 95.0728 204.951 95.0728 205.032 95.4436L206.245 101.039C206.275 101.175 206.381 101.281 206.517 101.309L212.152 102.508C212.524 102.587 212.524 103.119 212.152 103.198L206.517 104.397C206.381 104.425 206.275 104.531 206.245 104.667L205.032 110.262C204.951 110.633 204.422 110.633 204.342 110.262L203.129 104.667C203.099 104.531 202.993 104.425 202.857 104.397L197.222 103.198Z" fill="#019B4D"/>
<path d="M59.9293 202.895C60.0732 202.216 61.0433 202.216 61.1871 202.895L63.3361 213.048C63.3885 213.295 63.581 213.489 63.8282 213.543L73.8757 215.732C74.5504 215.879 74.5504 216.841 73.8757 216.988L63.8282 219.177C63.581 219.231 63.3885 219.424 63.3361 219.672L61.1871 229.824C61.0433 230.504 60.0732 230.504 59.9293 229.824L57.7803 219.672C57.728 219.424 57.5354 219.231 57.2883 219.177L47.2407 216.988C46.566 216.841 46.566 215.879 47.2407 215.732L57.2883 213.543C57.5354 213.489 57.728 213.295 57.7803 213.048L59.9293 202.895Z" fill="#019B4D"/>
<path d="M108.293 69.1468C108.373 68.7692 108.912 68.7692 108.992 69.1468L110.186 74.7867C110.215 74.9241 110.322 75.0318 110.459 75.0617L116.041 76.2776C116.416 76.3593 116.416 76.8939 116.041 76.9755L110.459 78.1915C110.322 78.2214 110.215 78.329 110.186 78.4665L108.992 84.1064C108.912 84.484 108.373 84.484 108.293 84.1064L107.099 78.4665C107.07 78.329 106.963 78.2214 106.826 78.1915L101.244 76.9755C100.87 76.8939 100.87 76.3593 101.244 76.2776L106.826 75.0617C106.963 75.0318 107.07 74.9241 107.099 74.7867L108.293 69.1468Z" fill="#019B4D"/>
<path d="M279.222 125.109C279.366 124.43 280.336 124.43 280.479 125.109L281.733 131.032C281.786 131.28 281.978 131.473 282.225 131.527L288.103 132.808C288.778 132.955 288.778 133.917 288.103 134.064L282.225 135.345C281.978 135.398 281.786 135.592 281.733 135.84L280.479 141.762C280.336 142.442 279.366 142.442 279.222 141.762L277.968 135.84C277.916 135.592 277.723 135.398 277.476 135.345L271.598 134.064C270.923 133.917 270.923 132.955 271.598 132.808L277.476 131.527C277.723 131.473 277.916 131.28 277.968 131.032L279.222 125.109Z" fill="#019B4D"/>
<path d="M305.137 220.065L307.106 229.366L316.273 231.363L307.106 233.36L305.137 242.661L303.169 233.36L294.001 231.363L303.169 229.366L305.137 220.065Z" fill="white"/>
<path d="M166.398 87.9899C168.465 95.6167 163.642 103.666 155.468 105.882C147.294 108.097 139.066 103.585 136.999 95.9581C134.932 88.3313 139.755 80.2818 147.929 78.0664C156.103 75.851 164.33 80.3631 166.398 87.9899Z" fill="#019B4D" stroke="#019B4D" stroke-width="2.35294"/>
<path d="M146.753 92.0445L151.56 90.1001L160.524 87.6704C167.342 85.8224 174.497 85.5916 181.42 86.9962C183.992 87.518 186.514 88.262 188.958 89.2197L198.036 92.7783L203.454 95.6999C207.561 97.9149 211.389 100.613 214.857 103.736C218.846 107.328 222.322 111.452 225.189 115.991L230.372 124.2L240.557 146.115L247.584 161.601L258.695 179.974L267.302 194.327L273.882 203.769C275.894 206.656 278.904 208.696 282.331 209.494C284.915 210.095 287.279 211.407 289.157 213.281L292.406 216.523C292.849 216.965 293.249 217.448 293.601 217.965C295.684 221.024 295.896 224.986 294.15 228.249L293.929 228.662C292.77 230.829 290.901 232.531 288.637 233.484L273.297 239.938L250.045 248.12L209.08 260.236L185.724 266.567L152.942 274.439L123.688 280.488L107.443 282.678C104.64 283.056 101.826 282.074 99.8662 280.035C98.0905 278.187 97.2013 275.662 97.4278 273.109L97.6928 270.123C97.9645 267.061 99.4803 264.245 101.886 262.332C104.253 260.451 105.76 257.694 106.066 254.686L107.548 240.112L107.548 220.941L105.118 194.574L103.827 175.889L103.153 167.902C102.75 163.126 102.736 158.324 103.113 153.545L103.288 151.312C103.713 145.92 104.768 140.596 106.432 135.45C107.922 130.839 109.893 126.397 112.311 122.198L113.011 120.983C115.351 116.919 118.121 113.119 121.274 109.647C124.52 106.073 128.151 102.87 132.101 100.096L132.595 99.7484C137.006 96.6503 141.756 94.0657 146.753 92.0445Z" fill="#CCEBDB"/>
<path d="M146.747 92.0237L151.554 90.0793L160.519 87.6496C167.337 85.8016 174.492 85.5708 181.415 86.9754C183.987 87.4973 186.509 88.2412 188.952 89.199L198.031 92.7575L203.449 95.6791C207.556 97.8941 211.384 100.592 214.851 103.715C218.84 107.308 222.317 111.431 225.183 115.971L230.366 124.179L240.551 146.094L247.578 161.58L258.69 179.954L267.297 194.306L273.144 202.308C275.724 205.837 279.514 208.291 283.79 209.201L284.181 209.284C286.915 209.865 289.452 211.142 291.548 212.992L292.775 214.074C294.435 215.539 295.613 217.472 296.154 219.62C296.695 221.77 296.572 224.033 295.801 226.111L295.747 226.256C295.466 227.014 295.105 227.74 294.672 228.421L294.449 228.771C293.013 231.029 291.011 232.873 288.643 234.121L284.629 236.235L277.002 240.253L255.614 249.896L241.15 255.681L228.614 260.503L218.007 264.039L207.079 267.896L197.757 270.467L191.329 272.074L173.972 275.61L157.579 278.824L126.722 283.259L117.289 284.302C115.44 284.507 113.575 284.501 111.728 284.284L106.971 283.727C104.39 283.424 101.994 282.234 100.193 280.36C98.1866 278.272 97.066 275.489 97.066 272.593L97.066 271.578C97.066 270.839 97.1257 270.101 97.2445 269.371L97.3121 268.956C97.837 265.733 99.187 262.7 101.231 260.153L102.602 258.444C106.795 253.217 108.916 246.628 108.559 239.936L107.543 220.92L105.113 194.554L103.822 175.868L103.148 167.882C102.744 163.105 102.731 158.303 103.107 153.525L103.283 151.291C103.708 145.899 104.763 140.576 106.426 135.429C107.917 130.818 109.888 126.376 112.306 122.177L113.005 120.962C115.346 116.898 118.116 113.098 121.269 109.626C124.514 106.053 128.145 102.849 132.096 100.075L132.59 99.7276C137.001 96.6296 141.75 94.0449 146.747 92.0237Z" fill="#ECF6EF" stroke="#019B4D" stroke-width="2.35294"/>
<ellipse cx="195.384" cy="249.218" rx="87.7909" ry="15.3514" transform="rotate(-15.4595 195.384 249.218)" fill="#019B4D"/>
<path d="M181.033 253.984L180.078 252.964C179.06 251.877 178.191 250.659 177.493 249.342C177.017 248.443 176.623 247.502 176.316 246.532L174.661 241.29L178.544 239.911L182.438 238.465L192.015 235.884L202.801 233.014L209.146 231.634L209.42 232.571C210.339 235.714 210.765 238.98 210.684 242.254L210.46 244.598C210.196 247.37 209.254 250.034 207.718 252.357L207.637 252.481C207.01 253.429 206.281 254.306 205.464 255.096C203.178 257.307 200.273 258.768 197.137 259.285L195.991 259.474C195.014 259.635 194.025 259.703 193.036 259.679C189.793 259.598 186.653 258.517 184.047 256.584L183.46 256.149C182.587 255.502 181.775 254.777 181.033 253.984Z" fill="#CCEBDB" stroke="#019B4D" stroke-width="2.35294"/>
</svg>
