<svg width="360" height="360" viewBox="0 0 360 360" fill="none" xmlns="http://www.w3.org/2000/svg">
<circle cx="186.75" cy="182.25" r="112.821" fill="#ECF6EF"/>
<circle cx="81.0001" cy="106.071" r="7.07143" fill="#ECF6EF"/>
<circle cx="263.893" cy="78.1072" r="13.1786" fill="#ECF6EF"/>
<circle cx="83.2506" cy="254.893" r="12.5357" fill="#ECF6EF"/>
<circle cx="307.607" cy="242.679" r="12.5357" fill="#ECF6EF"/>
<circle cx="283.178" cy="256.822" r="6.10714" fill="#ECF6EF"/>
<path d="M204.766 74.2738C204.394 74.1946 204.394 73.6626 204.766 73.5834L210.402 72.3851C210.537 72.3562 210.644 72.2503 210.673 72.1146L211.886 66.5193C211.967 66.1484 212.496 66.1484 212.576 66.5193L213.79 72.1146C213.819 72.2503 213.925 72.3562 214.061 72.3851L219.696 73.5834C220.069 73.6626 220.069 74.1946 219.696 74.2738L214.061 75.4721C213.925 75.501 213.819 75.6068 213.79 75.7426L212.576 81.3379C212.496 81.7088 211.967 81.7088 211.886 81.3379L210.673 75.7426C210.644 75.6068 210.537 75.501 210.402 75.4721L204.766 74.2738Z" fill="#219653"/>
<path d="M51.5719 199.043C51.7157 198.363 52.6859 198.363 52.8297 199.043L54.9787 209.195C55.031 209.442 55.2236 209.636 55.4707 209.69L65.5183 211.879C66.193 212.026 66.193 212.988 65.5183 213.135L55.4707 215.324C55.2236 215.378 55.031 215.572 54.9787 215.819L52.8297 225.971C52.6859 226.651 51.7157 226.651 51.5719 225.971L49.4229 215.819C49.3705 215.572 49.178 215.378 48.9308 215.324L38.8833 213.135C38.2086 212.988 38.2086 212.026 38.8833 211.879L48.9308 209.69C49.178 209.636 49.3705 209.442 49.4229 209.195L51.5719 199.043Z" fill="#219653"/>
<path d="M287.579 109.043C287.722 108.363 288.693 108.363 288.836 109.043L290.09 114.965C290.142 115.213 290.335 115.406 290.582 115.46L296.46 116.741C297.135 116.888 297.135 117.85 296.46 117.997L290.582 119.278C290.335 119.332 290.142 119.525 290.09 119.773L288.836 125.695C288.693 126.375 287.722 126.375 287.579 125.695L286.325 119.773C286.273 119.525 286.08 119.332 285.833 119.278L279.955 117.997C279.28 117.85 279.28 116.888 279.955 116.741L285.833 115.46C286.08 115.406 286.273 115.213 286.325 114.965L287.579 109.043Z" fill="#219653"/>
<path d="M313.495 203.998L315.463 213.299L324.631 215.296L315.463 217.293L313.495 226.594L311.526 217.293L302.358 215.296L311.526 213.299L313.495 203.998Z" fill="white"/>
<rect x="184.49" y="117.7" width="115.63" height="124.501" rx="6.63559" transform="rotate(10 184.49 117.7)" fill="white" stroke="#219653" stroke-width="2.35294"/>
<rect x="190.025" y="125.605" width="101.3" height="88.3341" rx="6.63559" transform="rotate(10 190.025 125.605)" fill="#ECF6EF" stroke="#ECF6EF" stroke-width="2.35294"/>
<rect x="72.5658" y="137.779" width="115.63" height="124.501" rx="6.63559" transform="rotate(-10 72.5658 137.779)" fill="white" stroke="#219653" stroke-width="2.35294"/>
<rect x="80.4711" y="143.314" width="101.3" height="88.3341" rx="6.63559" transform="rotate(-10 80.4711 143.314)" fill="#ECF6EF" stroke="#ECF6EF" stroke-width="2.35294"/>
<rect x="120.075" y="107.466" width="137.953" height="148.573" rx="7.71143" fill="white" stroke="#219653" stroke-width="2.35294"/>
<rect x="128.243" y="115.635" width="120.799" height="105.279" rx="7.71143" fill="#ECF6EF" stroke="#219653" stroke-width="2.35294"/>
<circle cx="204.175" cy="140.771" r="9.55147" fill="white"/>
<path d="M216.28 160.269C216.91 159.277 218.358 159.277 218.988 160.269L239.757 192.971C240.435 194.039 239.668 195.435 238.402 195.435H196.866C195.601 195.435 194.833 194.039 195.512 192.971L216.28 160.269Z" fill="#219653"/>
<path d="M169.964 139.283L204.271 193.84C204.449 194.123 204.246 194.49 203.912 194.49H137.51C137.181 194.49 136.977 194.134 137.144 193.851L169.239 139.294C169.4 139.02 169.795 139.014 169.964 139.283Z" fill="#CCEBDB" stroke="#CCEBDB" stroke-width="2.35294"/>
<path d="M168.94 136.548C169.196 136.103 169.834 136.094 170.102 136.531L179.295 151.514C179.678 152.139 178.932 152.842 178.331 152.421L175.545 150.471C175.306 150.303 174.986 150.308 174.752 150.484L170.78 153.463C170.584 153.61 170.324 153.639 170.1 153.54L165.474 151.483C165.297 151.405 165.095 151.406 164.92 151.486L160.669 153.418C160.072 153.689 159.477 153.035 159.804 152.466L168.94 136.548Z" fill="white"/>
<path d="M218.33 158.001C218.14 157.671 217.666 157.664 217.467 157.989L210.647 169.105C210.363 169.569 210.916 170.09 211.362 169.778L213.405 168.348C213.594 168.216 213.849 168.229 214.023 168.381L216.935 170.93C217.094 171.069 217.323 171.093 217.508 170.99L220.887 169.114C221.026 169.036 221.193 169.03 221.338 169.095L224.466 170.518C224.909 170.719 225.351 170.234 225.108 169.812L218.33 158.001Z" fill="white"/>
<path d="M147.735 201.552H179.428" stroke="#CCEBDB" stroke-width="2.35294" stroke-linecap="round"/>
<path d="M130.5 195.429H248.142" stroke="#219653" stroke-width="2.35294" stroke-linecap="square"/>
<path d="M170.743 206.545H191.153" stroke="#CCEBDB" stroke-width="2.35294" stroke-linecap="round"/>
<path d="M155.55 206.762H167.706" stroke="#CCEBDB" stroke-width="2.35294" stroke-linecap="round"/>
<path d="M211.122 201.987H221.107" stroke="#CCEBDB" stroke-width="2.35294" stroke-linecap="round"/>
</svg>
