<svg width="360" height="360" viewBox="0 0 360 360" fill="none" xmlns="http://www.w3.org/2000/svg">
<circle cx="185.465" cy="191.25" r="112.821" fill="#ECF6EF"/>
<circle cx="79.715" cy="115.071" r="7.07143" fill="#ECF6EF"/>
<circle cx="130.822" cy="69.75" r="13.1786" fill="#ECF6EF"/>
<circle cx="81.9649" cy="263.893" r="12.5357" fill="#ECF6EF"/>
<circle cx="306.322" cy="251.679" r="12.5357" fill="#ECF6EF"/>
<circle cx="281.894" cy="265.821" r="6.10714" fill="#ECF6EF"/>
<path d="M182.91 92.2738C182.537 92.1946 182.537 91.6626 182.91 91.5834L188.545 90.3851C188.681 90.3562 188.787 90.2503 188.816 90.1146L190.03 84.5193C190.11 84.1484 190.639 84.1484 190.72 84.5193L191.933 90.1146C191.962 90.2503 192.069 90.3562 192.204 90.3851L197.839 91.5834C198.212 91.6626 198.212 92.1946 197.839 92.2738L192.204 93.4721C192.069 93.501 191.962 93.6068 191.933 93.7426L190.72 99.3379C190.639 99.7088 190.11 99.7088 190.03 99.3379L188.816 93.7426C188.787 93.6068 188.681 93.501 188.545 93.4721L182.91 92.2738Z" fill="#019B4D"/>
<path d="M52.8582 147.614C53.0021 146.934 53.9722 146.934 54.1161 147.614L56.265 157.766C56.3174 158.014 56.51 158.208 56.7571 158.261L66.8046 160.45C67.4793 160.597 67.4793 161.56 66.8047 161.707L56.7571 163.895C56.51 163.949 56.3174 164.143 56.265 164.39L54.1161 174.543C53.9722 175.222 53.0021 175.222 52.8582 174.543L50.7093 164.39C50.6569 164.143 50.4643 163.949 50.2172 163.895L40.1697 161.707C39.495 161.56 39.495 160.597 40.1697 160.45L50.2172 158.261C50.4643 158.208 50.6569 158.014 50.7093 157.766L52.8582 147.614Z" fill="#019B4D"/>
<path d="M286.294 179.757C286.438 179.077 287.408 179.077 287.552 179.757L288.805 185.68C288.858 185.927 289.05 186.121 289.297 186.175L295.176 187.455C295.85 187.602 295.85 188.564 295.176 188.711L289.297 189.992C289.05 190.046 288.858 190.24 288.805 190.487L287.552 196.41C287.408 197.089 286.438 197.089 286.294 196.41L285.04 190.487C284.988 190.24 284.795 190.046 284.548 189.992L278.67 188.711C277.995 188.564 277.995 187.602 278.67 187.455L284.548 186.175C284.795 186.121 284.988 185.927 285.04 185.68L286.294 179.757Z" fill="#019B4D"/>
<path d="M312.21 212.998L314.179 222.299L323.346 224.296L314.179 226.293L312.21 235.593L310.241 226.293L301.074 224.296L310.241 222.299L312.21 212.998Z" fill="white"/>
<path d="M270.964 99.6429L136.285 241.714L151.714 302.464L162.321 251.357L270.964 99.6429Z" fill="#CCEBDB"/>
<path d="M135.643 241.071L151.393 303.75L161.357 251.679" stroke="#019B4D" stroke-width="2.57143"/>
<path d="M151.071 302.464L191.571 264.214" stroke="#019B4D" stroke-width="2.57143"/>
<path d="M270.964 99.6429L162 251.036L247.5 289.286L270.964 99.6429Z" fill="#ECF6EF" stroke="#019B4D" stroke-width="2.57143"/>
<path d="M270.964 98.3572L69.4282 212.786L135.643 241.071L270.964 98.3572Z" fill="#ECF6EF" stroke="#019B4D" stroke-width="2.57143"/>
<path d="M193.5 265.512L162.454 252L151.071 304.071L193.5 265.512Z" fill="#019B4D"/>
</svg>
