<svg width="360" height="360" viewBox="0 0 360 360" fill="none" xmlns="http://www.w3.org/2000/svg">
<circle cx="192.536" cy="193.821" r="112.821" fill="#ECF6EF"/>
<circle cx="66.2143" cy="161.999" r="25.7143" fill="#ECF6EF"/>
<circle cx="115.714" cy="59.1425" r="16.0714" fill="#ECF6EF"/>
<circle cx="292.821" cy="80.0357" r="12.5357" fill="#ECF6EF"/>
<circle cx="288.965" cy="268.393" r="6.10714" fill="#ECF6EF"/>
<path d="M221.945 87.2291C221.465 87.1272 221.465 86.4433 221.945 86.3414L229.19 84.8007C229.364 84.7636 229.501 84.6275 229.539 84.453L231.099 77.259C231.202 76.7822 231.882 76.7822 231.986 77.259L233.546 84.453C233.584 84.6275 233.72 84.7636 233.895 84.8007L241.14 86.3414C241.619 86.4433 241.619 87.1272 241.14 87.2291L233.895 88.7698C233.72 88.8069 233.584 88.943 233.546 89.1175L231.986 96.3115C231.882 96.7884 231.202 96.7884 231.099 96.3115L229.539 89.1175C229.501 88.943 229.364 88.8069 229.19 88.7698L221.945 87.2291Z" fill="#219653"/>
<path d="M59.5999 208.352C59.7438 207.672 60.7139 207.672 60.8578 208.352L63.0067 218.504C63.0591 218.752 63.2517 218.945 63.4988 218.999L73.5464 221.188C74.221 221.335 74.221 222.297 73.5464 222.444L63.4988 224.633C63.2517 224.687 63.0591 224.881 63.0067 225.128L60.8578 235.281C60.7139 235.96 59.7438 235.96 59.5999 235.281L57.451 225.128C57.3986 224.881 57.206 224.687 56.9589 224.633L46.9114 222.444C46.2367 222.297 46.2367 221.335 46.9114 221.188L56.9589 218.999C57.206 218.945 57.3986 218.752 57.451 218.504L59.5999 208.352Z" fill="#219653"/>
<path d="M222.223 296.969C222.367 296.289 223.337 296.289 223.481 296.969L224.735 302.892C224.787 303.139 224.98 303.333 225.227 303.387L231.105 304.667C231.78 304.814 231.78 305.776 231.105 305.923L225.227 307.204C224.98 307.258 224.787 307.452 224.735 307.699L223.481 313.622C223.337 314.301 222.367 314.301 222.223 313.622L220.969 307.699C220.917 307.452 220.725 307.258 220.477 307.204L214.599 305.923C213.924 305.776 213.924 304.814 214.599 304.667L220.477 303.387C220.725 303.333 220.917 303.139 220.969 302.892L222.223 296.969Z" fill="#219653"/>
<path d="M313.392 124.93L234.715 109.854C231.228 109.186 227.859 111.471 227.191 114.958L207.033 220.155C206.653 222.139 207.227 224.186 208.584 225.683L245.145 266.012C247.269 268.353 250.779 268.804 253.425 267.075L296.038 239.227C297.498 238.274 298.507 236.768 298.835 235.056L318.496 132.454C319.164 128.967 316.879 125.598 313.392 124.93Z" fill="#219653"/>
<path d="M257.717 146.896C251.896 145.653 246.177 149.316 244.946 155.08C243.952 159.733 243.438 171.17 259.211 186.213C259.494 186.48 259.845 186.665 260.226 186.746C260.607 186.827 261.002 186.803 261.37 186.674C281.913 179.39 286.117 168.741 287.111 164.088C288.343 158.324 284.62 152.644 278.8 151.4C272.979 150.157 266.907 155.473 266.907 155.473C266.907 155.473 263.538 148.14 257.717 146.896Z" fill="white"/>
<circle cx="251.357" cy="239.787" r="8.35714" fill="#ECF6EF"/>
<path d="M165.769 76.0895L60.9 114.073C56.9509 115.504 54.9091 119.865 56.3395 123.814L106.257 261.63C107.071 263.876 108.893 265.61 111.178 266.311L183.625 288.524C187.2 289.62 191.041 287.955 192.685 284.596L223.847 220.922C224.754 219.069 224.869 216.928 224.167 214.989L175.509 80.6501C174.079 76.701 169.718 74.6592 165.769 76.0895Z" fill="#ECF6EF" stroke="#219653" stroke-width="2.35294"/>
<path d="M131.085 143.244C131.467 143.094 131.756 142.773 131.865 142.377L131.865 142.376L131.866 142.374L131.871 142.354C131.876 142.336 131.885 142.306 131.897 142.267C131.92 142.187 131.956 142.067 132.006 141.911C132.105 141.599 132.258 141.144 132.468 140.585C132.888 139.464 133.532 137.938 134.428 136.317C136.242 133.033 138.976 129.561 142.776 128.069C150.562 125.014 159.306 128.791 162.32 136.471C163.576 139.67 165.094 145.394 163.869 153.559C162.642 161.732 158.654 172.432 148.767 185.557C148.552 185.838 148.265 186.055 147.935 186.185C147.606 186.314 147.247 186.35 146.899 186.29C130.724 183.392 120.523 178.26 114.066 173.102C107.614 167.949 104.835 162.72 103.58 159.521C100.566 151.841 104.408 143.125 112.195 140.07C115.995 138.579 120.36 139.265 123.924 140.439C125.683 141.018 127.193 141.699 128.263 142.234C128.797 142.502 129.219 142.732 129.504 142.893C129.647 142.974 129.755 143.037 129.826 143.079C129.841 143.088 129.855 143.096 129.866 143.103C129.882 143.113 129.895 143.12 129.904 143.126L129.921 143.137L129.924 143.138C129.924 143.138 129.924 143.138 129.924 143.138C129.924 143.138 129.924 143.138 129.924 143.138C129.924 143.138 129.924 143.138 129.924 143.138C129.924 143.139 129.924 143.139 129.924 143.139C130.273 143.355 130.703 143.394 131.085 143.244Z" fill="#219653" stroke="#219653" stroke-width="2.6021" stroke-linecap="round" stroke-linejoin="round"/>
<circle cx="173.25" cy="252.323" r="10.6071" fill="#219653"/>
</svg>
