<svg width="24" height="25" viewBox="0 0 24 25" fill="none" xmlns="http://www.w3.org/2000/svg">
<g clip-path="url(#clip0_5_1433)">
<path d="M13.299 3.6477L21.933 18.6022C22.5103 19.6022 21.7887 20.8522 20.634 20.8522H3.36601C2.21131 20.8522 1.48962 19.6022 2.06697 18.6022L10.7009 3.64771C11.2783 2.64771 12.7217 2.6477 13.299 3.6477ZM12 15.5C11.4477 15.5 11 15.9477 11 16.5C11 17.0523 11.4477 17.5 12 17.5C12.5523 17.5 13 17.0523 13 16.5C13 15.9477 12.5523 15.5 12 15.5ZM12 8.5C11.4871 8.5 11.0645 8.88604 11.0067 9.38338L11 9.5V13.5C11 14.0523 11.4477 14.5 12 14.5C12.5128 14.5 12.9355 14.114 12.9933 13.6166L13 13.5V9.5C13 8.94772 12.5523 8.5 12 8.5Z" fill="#7D7D7D"/>
</g>
<defs>
<clipPath id="clip0_5_1433">
<rect width="24" height="24" fill="white" transform="translate(0 0.5)"/>
</clipPath>
</defs>
</svg>
