<svg width="24" height="24" viewBox="0 0 24 24" fill="none" xmlns="http://www.w3.org/2000/svg">
<path fill-rule="evenodd" clip-rule="evenodd" d="M14.5858 3C15.1162 3 15.6249 3.21071 16 3.58579L17.4142 5H20C21.1046 5 22 5.89543 22 7V19C22 20.1046 21.1046 21 20 21H4C2.89543 21 2 20.1046 2 19V7C2 5.89543 2.89543 5 4 5H6.58579L8 3.58579C8.37507 3.21071 8.88378 3 9.41421 3H14.5858ZM8.65628 12.5001C8.21808 12.4951 7.82769 12.776 7.6932 13.1931L7.04826 15.1931C6.87876 15.7187 7.16746 16.2822 7.69309 16.4517C8.21788 16.621 8.78044 16.3335 8.95092 15.8094C9.75235 16.5484 10.823 17 12 17C13.6381 17 15.0707 16.1241 15.8565 14.8199C16.1416 14.3469 15.9892 13.7323 15.5161 13.4473C15.0431 13.1622 14.4285 13.3146 14.1435 13.7877C13.7044 14.5163 12.9082 15 12 15C10.869 15 9.91094 14.2481 9.60339 13.2147C9.47839 12.7947 9.09448 12.505 8.65628 12.5001ZM12 8C10.5772 8 9.30828 8.66144 8.48528 9.68968C8.36098 9.84497 8.24671 10.0088 8.14348 10.1801C7.85844 10.6531 8.01085 11.2677 8.48389 11.5527C8.95694 11.8378 9.57149 11.6854 9.85652 11.2123C9.91388 11.1171 9.97745 11.026 10.0467 10.9394C10.5065 10.365 11.2103 10 12 10C13.131 10 14.0891 10.7519 14.3966 11.7852C14.5216 12.2053 14.9055 12.495 15.3437 12.4999C15.7421 12.5044 16.1009 12.2727 16.2639 11.9172L16.3068 11.8069L16.9517 9.80691C17.1212 9.28128 16.8325 8.71776 16.3069 8.54826C15.7821 8.37903 15.2196 8.66654 15.0491 9.19057C14.2477 8.45161 13.177 8 12 8Z" fill="white"/>
</svg>
