<svg width="36" height="36" viewBox="0 0 36 36" fill="none" xmlns="http://www.w3.org/2000/svg">
<path d="M22.1894 4.5C22.7115 4.5 23.2149 4.6815 23.6153 5.00955L23.7804 5.15901L26.1213 7.5H30C31.5816 7.5 32.8773 8.72382 32.9918 10.2761L33 10.5V28.5C33 30.0816 31.7762 31.3773 30.2239 31.4918L30 31.5H6C4.41846 31.5 3.12275 30.2762 3.00823 28.7239L3 28.5V10.5C3 8.91846 4.22382 7.62275 5.77611 7.50823L6 7.5H9.87869L12.2197 5.15901C12.5889 4.78979 13.0732 4.56215 13.5883 4.51101L13.8107 4.5H22.1894ZM18 11.25C13.8579 11.25 10.5 14.6079 10.5 18.75C10.5 22.8921 13.8579 26.25 18 26.25C22.1421 26.25 25.5 22.8921 25.5 18.75C25.5 14.6079 22.1421 11.25 18 11.25ZM18 14.25C20.4854 14.25 22.5 16.2647 22.5 18.75C22.5 21.2353 20.4854 23.25 18 23.25C15.5147 23.25 13.5 21.2353 13.5 18.75C13.5 16.2647 15.5147 14.25 18 14.25Z" fill="white"/>
</svg>
