<svg width="24" height="24" viewBox="0 0 24 24" fill="none" xmlns="http://www.w3.org/2000/svg">
<g clip-path="url(#clip0_644_587)">
<path fill-rule="evenodd" clip-rule="evenodd" d="M12.0002 14.1215L17.3034 19.4248C17.8892 20.0106 18.839 20.0106 19.4248 19.4248C20.0106 18.839 20.0106 17.8893 19.4248 17.3035L14.1215 12.0002L19.4248 6.6969C20.0106 6.11112 20.0106 5.16137 19.4248 4.57558C18.839 3.9898 17.8892 3.9898 17.3034 4.57558L12.0002 9.87888L6.69689 4.57557C6.1111 3.98978 5.16135 3.98978 4.57557 4.57557C3.98978 5.16136 3.98978 6.1111 4.57557 6.69689L9.87887 12.0002L4.57557 17.3035C3.98978 17.8893 3.98978 18.839 4.57557 19.4248C5.16135 20.0106 6.1111 20.0106 6.69689 19.4248L12.0002 14.1215Z" fill="#2E2E2E"/>
</g>
<defs>
<clipPath id="clip0_644_587">
<rect width="24" height="24" fill="white"/>
</clipPath>
</defs>
</svg>
