<svg width="19" height="18" viewBox="0 0 19 18" fill="none" xmlns="http://www.w3.org/2000/svg">
    <g clip-path="url(#clip0_208_1797)">
        <path
            d="M9.33984 1.5C13.4819 1.5 16.8398 4.85786 16.8398 9C16.8398 13.1421 13.4819 16.5 9.33984 16.5C5.19771 16.5 1.83984 13.1421 1.83984 9C1.83984 4.85786 5.19771 1.5 9.33984 1.5ZM11.9914 6.28602L8.27904 9.99833L6.68808 8.40735C6.39519 8.11447 5.92032 8.11447 5.62742 8.40735C5.33453 8.70022 5.33453 9.17512 5.62742 9.468L7.69571 11.5363C8.01789 11.8585 8.54027 11.8585 8.86247 11.5363L13.052 7.34668C13.3449 7.05379 13.3449 6.57891 13.052 6.28602C12.7592 5.99312 12.2843 5.99312 11.9914 6.28602Z"
            fill="currentColor" />
    </g>
    <defs>
        <clipPath id="clip0_208_1797">
            <rect width="18" height="18" fill="white" transform="translate(0.339844)" />
        </clipPath>
    </defs>
</svg>