<svg width="28" height="28" viewBox="0 0 28 28" fill="none" xmlns="http://www.w3.org/2000/svg">
<g clip-path="url(#clip0_18_201)">
<path d="M12.5675 3.13617C13.3575 2.52177 14.4438 2.48338 15.2708 3.02097L15.4325 3.13617L25.2136 10.7437C26.0556 11.3986 25.6454 12.7174 24.6321 12.8262L24.4966 12.8333H23.3334V22.1667C23.3334 23.3968 22.3815 24.4045 21.1742 24.4936L21.0001 24.5H7.00004C5.76995 24.5 4.76218 23.5482 4.67311 22.3408L4.66671 22.1667V12.8333H3.50345C2.43785 12.8333 1.95003 11.5412 2.68377 10.8326L2.78646 10.7437L12.5675 3.13617ZM14.0001 4.978L6.56302 10.7623C6.82964 10.9784 7.00004 11.3085 7.00004 11.6783V22.1667H10.5V16.3333C10.5 14.4003 12.067 12.8333 14.0001 12.8333C15.933 12.8333 17.5001 14.4003 17.5001 16.3333V22.1667H21.0001V11.6783C21.0001 11.3084 21.1704 10.9784 21.437 10.7623L14.0001 4.978ZM14.0001 15.1667C13.3557 15.1667 12.8334 15.689 12.8334 16.3333V22.1667H15.1668V16.3333C15.1668 15.689 14.6443 15.1667 14.0001 15.1667Z" fill="#606060"/>
</g>
<defs>
<clipPath id="clip0_18_201">
<rect width="28" height="28" fill="white"/>
</clipPath>
</defs>
</svg>
