<svg width="28" height="28" viewBox="0 0 28 28" fill="none" xmlns="http://www.w3.org/2000/svg">
<g clip-path="url(#clip0_284_559)">
<path d="M15.4325 3.13617C14.59 2.48082 13.4101 2.48082 12.5675 3.13617L2.78646 10.7437C1.90871 11.4263 2.39152 12.8333 3.50345 12.8333H4.66671V22.1667C4.66671 23.4554 5.71137 24.5 7.00004 24.5H11.6666V17.5C11.6666 16.2113 12.7113 15.1667 14 15.1667C15.2887 15.1667 16.3333 16.2113 16.3333 17.5V24.5H21.0001C22.2887 24.5 23.3334 23.4554 23.3334 22.1667V12.8333H24.4966C25.6074 12.8333 26.0922 11.4271 25.2136 10.7437L15.4325 3.13617Z" fill="#219653"/>
</g>
<defs>
<clipPath id="clip0_284_559">
<rect width="28" height="28" fill="white"/>
</clipPath>
</defs>
</svg>
