<svg width="33" height="32" viewBox="0 0 33 32" fill="none" xmlns="http://www.w3.org/2000/svg">
<path fill-rule="evenodd" clip-rule="evenodd" d="M21.6564 4.01803C23.4341 2.981 25.6667 4.26334 25.6667 6.32144V10.6667C27.8759 10.6667 29.6667 12.4576 29.6667 14.6667C29.6667 16.8759 27.8759 18.6667 25.6667 18.6667V22.6667C25.6667 24.8642 23.158 26.1186 21.4 24.8L18.6521 22.7391C17.1793 21.6346 15.4691 20.9022 13.6666 20.5948V24.3866C13.6666 26.3823 12.0488 28 10.0532 28C8.43987 28 7.022 26.9306 6.57877 25.3792L4.4848 18.0503C3.55699 16.9556 3 15.5399 3 14C3 10.6742 5.59816 7.92774 8.91885 7.74326L12.9437 7.51966C14.9123 7.41028 16.8268 6.83523 18.53 5.84176L21.6564 4.01803ZM7.84495 20.104L9.14284 24.6467C9.25897 25.0531 9.63048 25.3334 10.0532 25.3334C10.5761 25.3334 11 24.9095 11 24.3866V20.3724L8.91885 20.2568C8.55117 20.2364 8.19236 20.1846 7.84495 20.104ZM27 14.6667C27 13.9303 26.4031 13.3334 25.6667 13.3334V16C26.4031 16 27 15.4031 27 14.6667Z" fill="#495686"/>
</svg>
