<svg width="24" height="24" viewBox="0 0 24 24" fill="none" xmlns="http://www.w3.org/2000/svg">
<path fill-rule="evenodd" clip-rule="evenodd" d="M12.7022 2.19521L19.7022 4.82021C20.4829 5.11294 21 5.85918 21 6.69287V12.0556C21 15.4645 19.074 18.5809 16.0249 20.1054L12.6708 21.7825C12.2485 21.9936 11.7515 21.9936 11.3292 21.7825L7.97508 20.1054C4.92602 18.5809 3 15.4645 3 12.0556V6.69287C3 5.85918 3.51715 5.11294 4.29775 4.82021L11.2978 2.19521C11.7505 2.02542 12.2495 2.02542 12.7022 2.19521ZM12 14C11.4477 14 11 14.4477 11 15C11 15.5523 11.4477 16 12 16C12.5523 16 13 15.5523 13 15C13 14.4477 12.5523 14 12 14ZM12 7C11.4872 7 11.0645 7.38605 11.0067 7.88338L11 8V12C11 12.5523 11.4477 13 12 13C12.5128 13 12.9355 12.614 12.9933 12.1166L13 12V8C13 7.44772 12.5523 7 12 7Z" fill="#ED6F47"/>
</svg>
