<svg width="24" height="24" viewBox="0 0 24 24" fill="none" xmlns="http://www.w3.org/2000/svg">
<g clip-path="url(#clip0_303_1043)">
<path d="M4 16C4.51283 16 4.93551 16.386 4.99327 16.8834L5 17V19H7C7.55228 19 8 19.4477 8 20C8 20.5128 7.61396 20.9355 7.11662 20.9933L7 21H5C3.94564 21 3.08183 20.1841 3.00549 19.1493L3 19V17C3 16.4477 3.44772 16 4 16ZM20 16C20.5523 16 21 16.4477 21 17V19C21 20.1046 20.1046 21 19 21H17C16.4477 21 16 20.5523 16 20C16 19.4477 16.4477 19 17 19H19V17C19 16.4477 19.4477 16 20 16ZM15.6416 7.04509C16.0175 6.88402 16.4535 6.96799 16.7426 7.25713C16.9997 7.51414 17.0945 7.88723 16.9994 8.23093L16.9547 8.35816L12.712 18.2577C12.5416 18.6553 12.1348 18.8982 11.704 18.8598C11.3123 18.8248 10.9814 18.5644 10.8513 18.2007L10.8185 18.0886L9.89837 14.1014L5.91117 13.1813C5.48965 13.084 5.17847 12.7267 5.13999 12.2958C5.10502 11.9041 5.30264 11.5323 5.6376 11.3399L5.74211 11.2877L15.6416 7.04509ZM7 3C7.55228 3 8 3.44772 8 4C8 4.55228 7.55228 5 7 5H5V7C5 7.55228 4.55228 8 4 8C3.44772 8 3 7.55228 3 7V5C3 3.89543 3.89543 3 5 3H7ZM19 3C20.1046 3 21 3.89543 21 5V7C21 7.55228 20.5523 8 20 8C19.4477 8 19 7.55228 19 7V5H17C16.4477 5 16 4.55228 16 4C16 3.44772 16.4477 3 17 3H19Z" fill="#2E2E2E"/>
</g>
<defs>
<clipPath id="clip0_303_1043">
<rect width="24" height="24" fill="white"/>
</clipPath>
</defs>
</svg>
