<svg width="24" height="25" viewBox="0 0 24 25" fill="none" xmlns="http://www.w3.org/2000/svg">
<g clip-path="url(#clip0_192_192)">
<path d="M12 3C12.8284 3 13.5 3.67157 13.5 4.5C13.5 5.32843 12.8284 6 12 6H7C6.72386 6 6.5 6.22386 6.5 6.5V18.5C6.5 18.7761 6.72386 19 7 19H11.5C12.3284 19 13 19.6716 13 20.5C13 21.3284 12.3284 22 11.5 22H7C5.067 22 3.5 20.433 3.5 18.5V6.5C3.5 4.567 5.067 3 7 3H12ZM18.0606 8.61091L20.889 11.4393C21.4748 12.0251 21.4748 12.9749 20.889 13.5607L18.0606 16.3891C17.4748 16.9749 16.5251 16.9749 15.9393 16.3891C15.3535 15.8033 15.3535 14.8536 15.9393 14.2678L16.207 14H12C11.1716 14 10.5 13.3284 10.5 12.5C10.5 11.6716 11.1716 11 12 11H16.207L15.9393 10.7322C15.3535 10.1464 15.3535 9.1967 15.9393 8.61091C16.5251 8.02513 17.4748 8.02513 18.0606 8.61091Z" fill="#ED4747"/>
</g>
<defs>
<clipPath id="clip0_192_192">
<rect width="24" height="24" fill="white" transform="translate(0 0.5)"/>
</clipPath>
</defs>
</svg>
