<svg width="28" height="28" viewBox="0 0 28 28" fill="none" xmlns="http://www.w3.org/2000/svg">
<path d="M17.4999 22.1667C17.4999 23.3968 16.5481 24.4045 15.3407 24.4936L15.1666 24.5H12.8332C11.6032 24.5 10.5954 23.5482 10.5063 22.3408L10.4999 22.1667H17.4999ZM14.0001 2.33334C18.4165 2.33334 22.0141 5.83893 22.1621 10.2193L22.1668 10.5V14.8912L24.2925 19.1428C24.6988 19.9555 24.1554 20.9047 23.2787 20.9933L23.1447 21H4.85555C3.94697 21 3.3409 20.0894 3.6538 19.2656L3.7077 19.1428L5.83344 14.8912V10.5C5.83344 5.98969 9.48978 2.33334 14.0001 2.33334Z" fill="#219653"/>
</svg>
