<svg width="28" height="28" viewBox="0 0 28 28" fill="none" xmlns="http://www.w3.org/2000/svg">
<path fill-rule="evenodd" clip-rule="evenodd" d="M17.5 22.1667C17.5 23.3968 16.5482 24.4045 15.3408 24.4936L15.1666 24.5H12.8333C11.6032 24.5 10.5955 23.5482 10.5064 22.3408L10.5 22.1667H17.5ZM14.0002 2.33334C18.4166 2.33334 22.0142 5.83893 22.1621 10.2193L22.1669 10.5V14.8912L24.2925 19.1428C24.6989 19.9555 24.1555 20.9047 23.2787 20.9933L23.1448 21H4.85561C3.94703 21 3.34096 20.0894 3.65386 19.2656L3.70776 19.1428L5.8335 14.8912V10.5C5.8335 5.98969 9.48984 2.33334 14.0002 2.33334ZM14.0002 4.66668C10.8633 4.66668 8.30471 7.1427 8.17222 10.247L8.16683 10.5V14.8912C8.16683 15.181 8.11285 15.4676 8.00832 15.7366L7.9205 15.9348L6.55454 18.6667H21.4458L20.0798 15.9348C19.9503 15.6755 19.8704 15.395 19.8436 15.1077L19.8335 14.8912V10.5C19.8335 7.27835 17.2218 4.66668 14.0002 4.66668Z" fill="#606060"/>
</svg>
