<svg width="24" height="25" viewBox="0 0 24 25" fill="none" xmlns="http://www.w3.org/2000/svg">
<g clip-path="url(#clip0_192_186)">
<path d="M10.4377 4.86767C12.9761 2.32927 17.0917 2.32927 19.6301 4.86767C22.1685 7.40608 22.1685 11.5217 19.6301 14.0601C17.7528 15.9374 15.0147 16.4249 12.6905 15.5282L12.4213 15.4184L12.4015 15.4136H11.7913V16.992C11.7913 17.6392 11.2994 18.1715 10.6691 18.2355L10.5413 18.242H8.96286V19.8205C8.96286 20.4677 8.47098 21 7.84067 21.064L7.71286 21.0705H3.73022C3.20969 21.0705 2.78099 20.6766 2.72614 20.1706L2.72021 20.0606V17.4492C2.72021 17.101 2.84121 16.7654 3.05992 16.4985L3.15956 16.3885L8.6602 10.8878L8.66938 10.8505C8.67196 10.8299 8.67242 10.802 8.66583 10.7697C8.24427 8.70574 8.83365 6.47175 10.4377 4.86767ZM14.6804 7.69615C14.0946 8.28194 14.0946 9.23169 14.6804 9.81747C15.2662 10.4033 16.216 10.4033 16.8017 9.81747C17.3875 9.23169 17.3875 8.28194 16.8017 7.69615C16.216 7.11037 15.2662 7.11037 14.6804 7.69615Z" fill="#2E2E2E"/>
</g>
<defs>
<clipPath id="clip0_192_186">
<rect width="24" height="24" fill="white" transform="translate(0 0.5)"/>
</clipPath>
</defs>
</svg>
