<svg width="28" height="28" viewBox="0 0 28 28" fill="none" xmlns="http://www.w3.org/2000/svg">
<path fill-rule="evenodd" clip-rule="evenodd" d="M21 2.33331C22.2887 2.33331 23.3333 3.37798 23.3333 4.66665V14.9365C22.3037 14.3409 21.1083 14 19.8333 14C15.9673 14 12.8333 17.134 12.8333 21C12.8333 22.7928 13.5073 24.4282 14.6157 25.6666H6.99996C5.71129 25.6666 4.66663 24.622 4.66663 23.3333V4.66665C4.66663 3.37798 5.71129 2.33331 6.99996 2.33331H21ZM19.8333 16.3333C22.4106 16.3333 24.5 18.4227 24.5 21C24.5 23.5773 22.4106 25.6666 19.8333 25.6666C17.256 25.6666 15.1666 23.5773 15.1666 21C15.1666 18.4227 17.256 16.3333 19.8333 16.3333ZM19.8333 18.0833C19.235 18.0833 18.7419 18.5337 18.6745 19.1139L18.6666 19.25V21C18.6666 21.5983 19.117 22.0914 19.6972 22.1588L19.8333 22.1666H21C21.6443 22.1666 22.1666 21.6443 22.1666 21C22.1666 20.4017 21.7163 19.9086 21.136 19.8412L21 19.8333V19.25C21 18.6056 20.4776 18.0833 19.8333 18.0833ZM10.5 12.8333H9.33329C8.68897 12.8333 8.16663 13.3556 8.16663 14C8.16663 14.6443 8.68897 15.1666 9.33329 15.1666H10.5C11.1443 15.1666 11.6666 14.6443 11.6666 14C11.6666 13.3556 11.1443 12.8333 10.5 12.8333ZM16.3333 8.16665H9.33329C8.68897 8.16665 8.16663 8.68899 8.16663 9.33331C8.16663 9.93162 8.61701 10.4247 9.19724 10.4921L9.33329 10.5H16.3333C16.9776 10.5 17.5 9.97764 17.5 9.33331C17.5 8.73501 17.0496 8.24189 16.4694 8.1745L16.3333 8.16665Z" fill="#219653"/>
</svg>
