<svg width="28" height="28" viewBox="0 0 28 28" fill="none" xmlns="http://www.w3.org/2000/svg">
<path fill-rule="evenodd" clip-rule="evenodd" d="M4.66666 4.66668C4.66666 3.37801 5.71132 2.33334 6.99999 2.33334H21C22.2887 2.33334 23.3333 3.37801 23.3333 4.66668V11.6667H21V4.66668H6.99999V23.3333H12.8333V25.6667H6.99999C5.71132 25.6667 4.66666 24.622 4.66666 23.3333V4.66668ZM9.33332 9.33334C9.33332 8.68902 9.85566 8.16668 10.5 8.16668H17.5C18.1443 8.16668 18.6667 8.68902 18.6667 9.33334C18.6667 9.97767 18.1443 10.5 17.5 10.5H10.5C9.85566 10.5 9.33332 9.97767 9.33332 9.33334ZM9.33332 14C9.33332 13.3557 9.85566 12.8333 10.5 12.8333H11.6667C12.311 12.8333 12.8333 13.3557 12.8333 14C12.8333 14.6444 12.311 15.1667 11.6667 15.1667H10.5C9.85566 15.1667 9.33332 14.6444 9.33332 14ZM19.8333 16.3333C17.9003 16.3333 16.3333 17.9003 16.3333 19.8333C16.3333 21.7664 17.9003 23.3333 19.8333 23.3333C21.7664 23.3333 23.3333 21.7664 23.3333 19.8333C23.3333 17.9003 21.7664 16.3333 19.8333 16.3333ZM14 19.8333C14 16.6117 16.6117 14 19.8333 14C23.055 14 25.6667 16.6117 25.6667 19.8333C25.6667 23.055 23.055 25.6667 19.8333 25.6667C16.6117 25.6667 14 23.055 14 19.8333ZM19.8333 16.9167C20.4777 16.9167 21 17.439 21 18.0833V18.6667C21.6443 18.6667 22.1667 19.189 22.1667 19.8333C22.1667 20.4777 21.6443 21 21 21H19.8333C19.189 21 18.6667 20.4777 18.6667 19.8333V18.0833C18.6667 17.439 19.189 16.9167 19.8333 16.9167Z" fill="#606060"/>
</svg>
