<svg width="26" height="27" viewBox="0 0 26 27" fill="none" xmlns="http://www.w3.org/2000/svg">
<g clip-path="url(#clip0_197_1417)">
<path fill-rule="evenodd" clip-rule="evenodd" d="M4.33337 5.91669C4.33337 4.12177 5.78845 2.66669 7.58337 2.66669H18.4167C20.2117 2.66669 21.6667 4.12177 21.6667 5.91669V23.2808C21.6667 24.6026 20.1727 25.3713 19.0971 24.6031L13 20.248L6.90289 24.6031C5.82736 25.3713 4.33337 24.6026 4.33337 23.2808V5.91669ZM7.58337 4.83335C6.98507 4.83335 6.50004 5.31838 6.50004 5.91669V22.2282L12.0555 18.2601C12.6205 17.8564 13.3795 17.8564 13.9446 18.2601L19.5 22.2282V5.91669C19.5 5.31838 19.015 4.83335 18.4167 4.83335H7.58337Z" fill="#2E2E2E"/>
</g>
<defs>
<clipPath id="clip0_197_1417">
<rect width="26" height="26" fill="white" transform="translate(0 0.5)"/>
</clipPath>
</defs>
</svg>
