<svg width="20" height="20" viewBox="0 0 20 20" fill="none" xmlns="http://www.w3.org/2000/svg">
<g clip-path="url(#clip0_197_1056)">
<path fill-rule="evenodd" clip-rule="evenodd" d="M4.58334 8.33331C4.58334 6.26225 6.26228 4.58331 8.33334 4.58331C10.4044 4.58331 12.0833 6.26225 12.0833 8.33331C12.0833 10.4044 10.4044 12.0833 8.33334 12.0833C6.26228 12.0833 4.58334 10.4044 4.58334 8.33331ZM8.33334 2.08331C4.88156 2.08331 2.08334 4.88153 2.08334 8.33331C2.08334 11.7851 4.88156 14.5833 8.33334 14.5833C9.60718 14.5833 10.792 14.2022 11.7801 13.5478L15.7828 17.5506C16.2709 18.0386 17.0624 18.0386 17.5506 17.5506C18.0387 17.0624 18.0387 16.2709 17.5506 15.7827L13.5478 11.7801C14.2023 10.792 14.5833 9.60715 14.5833 8.33331C14.5833 4.88153 11.7851 2.08331 8.33334 2.08331Z" fill="#7D7D7D"/>
</g>
<defs>
<clipPath id="clip0_197_1056">
<rect width="20" height="20" fill="white"/>
</clipPath>
</defs>
</svg>
