<svg width="24" height="24" viewBox="0 0 24 24" fill="none" xmlns="http://www.w3.org/2000/svg">
<g clip-path="url(#clip0_197_1098)">
<path fill-rule="evenodd" clip-rule="evenodd" d="M11.2929 7.29289C11.6834 6.90237 12.3166 6.90237 12.7071 7.29289L14.7071 9.2929C14.9931 9.5789 15.0787 10.009 14.9239 10.3827C14.7691 10.7564 14.4045 11 14 11H10C9.59557 11 9.23093 10.7564 9.07615 10.3827C8.92137 10.009 9.00692 9.5789 9.29292 9.2929L11.2929 7.29289ZM9.07615 13.6173C9.23093 13.2436 9.59557 13 10 13H14C14.4045 13 14.7691 13.2436 14.9239 13.6173C15.0787 13.991 14.9931 14.4211 14.7071 14.7071L12.7071 16.7071C12.3166 17.0976 11.6834 17.0976 11.2929 16.7071L9.29292 14.7071C9.00692 14.4211 8.92137 13.991 9.07615 13.6173Z" fill="#2E2E2E"/>
</g>
<defs>
<clipPath id="clip0_197_1098">
<rect width="24" height="24" fill="white"/>
</clipPath>
</defs>
</svg>
