<svg width="24" height="24" viewBox="0 0 24 24" fill="none" xmlns="http://www.w3.org/2000/svg">
<g clip-path="url(#clip0_489_517)">
<path fill-rule="evenodd" clip-rule="evenodd" d="M12 19.0001C12.5128 19.0001 12.9355 19.3861 12.9933 19.8835L13 20.0001V21.0001C13 21.5524 12.5523 22.0001 12 22.0001C11.4872 22.0001 11.0645 21.6141 11.0067 21.1167L11 21.0001V20.0001C11 19.4478 11.4477 19.0001 12 19.0001ZM7.05028 16.9498C7.4408 17.3403 7.4408 17.9735 7.05028 18.364L6.34317 19.0711C5.95265 19.4617 5.31948 19.4617 4.92896 19.0711C4.53843 18.6806 4.53843 18.0474 4.92896 17.6569L5.63606 16.9498C6.02659 16.5593 6.65975 16.5593 7.05028 16.9498ZM18.3639 16.9498L19.071 17.657C19.4615 18.0475 19.4615 18.6806 19.071 19.0712C18.6805 19.4617 18.0473 19.4617 17.6568 19.0712L16.9497 18.3641C16.5592 17.9735 16.5592 17.3404 16.9497 16.9498C17.3402 16.5593 17.9734 16.5593 18.3639 16.9498ZM12.6171 2C13.6257 2 14.4765 2.75107 14.6017 3.75193L14.9817 6.79221C16.7851 7.82703 17.9999 9.77165 17.9999 12C17.9999 15.3137 15.3136 18 11.9999 18C8.68617 18 5.99988 15.3137 5.99988 12C5.99988 9.77165 7.21464 7.82703 9.01807 6.79221L9.3981 3.75193C9.52321 2.75107 10.374 2 11.3827 2H12.6171ZM4 11.0001C4.55228 11.0001 5 11.4478 5 12.0001C5 12.5524 4.55228 13.0001 4 13.0001H3C2.44772 13.0001 2 12.5524 2 12.0001C2 11.4478 2.44772 11.0001 3 11.0001H4ZM21 11.0001C21.5523 11.0001 22 11.4478 22 12.0001C22 12.5524 21.5523 13.0001 21 13.0001H20C19.4477 13.0001 19 12.5524 19 12.0001C19 11.4478 19.4477 11.0001 20 11.0001H21ZM19.0711 4.929C19.4616 5.31953 19.4616 5.95269 19.0711 6.34322L18.364 7.05032C17.9735 7.44085 17.3403 7.44085 16.9498 7.05032C16.5592 6.6598 16.5592 6.02663 16.9498 5.63611L17.6569 4.929C18.0474 4.53848 18.6806 4.53848 19.0711 4.929ZM6.34309 4.92903L7.0502 5.63614C7.44072 6.02666 7.44072 6.65983 7.0502 7.05035C6.65968 7.44088 6.02651 7.44088 5.63599 7.05035L4.92888 6.34325C4.53835 5.95272 4.53836 5.31956 4.92888 4.92903C5.3194 4.53851 5.95257 4.53851 6.34309 4.92903ZM12.6171 4H11.3827L11.1327 6H12.8671L12.6171 4Z" fill="white"/>
</g>
<defs>
<clipPath id="clip0_489_517">
<rect width="24" height="24" fill="white"/>
</clipPath>
</defs>
</svg>
