<svg width="24" height="24" viewBox="0 0 24 24" fill="none" xmlns="http://www.w3.org/2000/svg">
<path d="M11 2C8.23858 2 6 4.23858 6 7C6 9.76142 8.23858 12 11 12C13.7614 12 16 9.76142 16 7C16 4.23858 13.7614 2 11 2ZM11 13C11.5905 13 12.1671 13.0422 12.7242 13.12C13.1073 13.1735 13.4253 13.4432 13.5405 13.8125C13.6557 14.1818 13.5476 14.5845 13.2628 14.8464C11.8704 16.1271 11 17.9612 11 20C11 20.2944 11.0181 20.5842 11.0532 20.8683C11.0888 21.1562 10.9976 21.4453 10.8033 21.6607C10.609 21.8761 10.3308 21.9965 10.0408 21.9907C8.03011 21.9505 6.15161 21.775 4.74658 21.3445C4.04521 21.1296 3.38303 20.8283 2.88088 20.3832C2.35083 19.9134 2 19.2788 2 18.5C2 17.713 2.35805 16.9767 2.84397 16.3615C3.33788 15.7363 4.02143 15.1602 4.82227 14.6715C6.42467 13.6937 8.60453 13 11 13ZM21.2122 14.0335C22.1885 15.0098 22.1885 16.5927 21.2122 17.569L17.7945 20.9867C17.5651 21.2162 17.2673 21.3651 16.946 21.411L14.6375 21.7408C13.9766 21.8352 13.4106 21.2687 13.505 20.6083L13.8347 18.2997C13.8806 17.9784 14.0295 17.6807 14.259 17.4512L17.6767 14.0335C18.653 13.0572 20.2359 13.0572 21.2122 14.0335Z" fill="#2E2E2E"/>
</svg>
