<svg width="33" height="32" viewBox="0 0 33 32" fill="none" xmlns="http://www.w3.org/2000/svg">
<g clip-path="url(#clip0_284_366)">
<path d="M22.8333 7.33337C21.7288 7.33337 20.8333 8.2288 20.8333 9.33337C20.8333 10.4379 21.7288 11.3334 22.8333 11.3334H23.3382L18.8333 15.8383L14.2476 11.2525C13.4665 10.4714 12.2001 10.4714 11.4191 11.2525L2.75242 19.9191C1.97136 20.7002 1.97136 21.9666 2.75242 22.7476C3.53347 23.5286 4.79979 23.5286 5.58084 22.7476L12.8333 15.4951L17.419 20.081C18.2001 20.8619 19.4665 20.8619 20.2476 20.081L26.1666 14.1618V14.6667C26.1666 15.7712 27.0621 16.6667 28.1666 16.6667C29.2712 16.6667 30.1666 15.7712 30.1666 14.6667V9.33337C30.1666 8.2288 29.2712 7.33337 28.1666 7.33337H22.8333Z" fill="#219653"/>
</g>
<defs>
<clipPath id="clip0_284_366">
<rect width="32" height="32" fill="white" transform="translate(0.166626)"/>
</clipPath>
</defs>
</svg>
