<svg width="24" height="24" viewBox="0 0 24 24" fill="none" xmlns="http://www.w3.org/2000/svg">
    <path fill-rule="evenodd" clip-rule="evenodd"
        d="M10.5857 2.10056C11.3257 1.36062 12.5011 1.32167 13.2869 1.98373L13.4141 2.10056L15.3136 4.00005H17.9999C19.0543 4.00005 19.9181 4.81593 19.9944 5.85079L19.9999 6.00005V8.68632L21.8994 10.5858C22.6394 11.3258 22.6783 12.5012 22.0162 13.2871L21.8994 13.4143L19.9999 15.3138V18.0001C19.9999 19.0544 19.184 19.9183 18.1492 19.9946L17.9999 20.0001H15.3136L13.4141 21.8995C12.6742 22.6395 11.4987 22.6784 10.7129 22.0163L10.5857 21.8995L8.68622 20.0001H5.99991C4.94554 20.0001 4.08174 19.1842 4.00539 18.1494L3.99991 18.0001V15.3137L2.10043 13.4143C1.36049 12.6743 1.32155 11.4988 1.9836 10.713L2.10044 10.5858L3.99991 8.68636V6.00005C3.99991 4.94569 4.81578 4.08188 5.85064 4.00553L5.99991 4.00005H8.68622L10.5857 2.10056ZM15.0794 8.98261L10.8348 13.2271L9.06704 11.4594C8.67652 11.0689 8.04336 11.0689 7.65283 11.4594C7.26231 11.8499 7.26231 12.4831 7.65283 12.8736L10.057 15.2778C10.4866 15.7073 11.1831 15.7073 11.6126 15.2778L16.4936 10.3968C16.8841 10.0063 16.8841 9.37314 16.4936 8.98261C16.103 8.59209 15.4699 8.59209 15.0794 8.98261Z"
        fill="currentColor" />
</svg>