<svg width="18" height="18" viewBox="0 0 18 18" fill="none" xmlns="http://www.w3.org/2000/svg">
    <path fill-rule="evenodd" clip-rule="evenodd"
        d="M7.93927 1.57545C8.49427 1.02049 9.37586 0.991284 9.96517 1.48782L10.0606 1.57545L11.4852 3.00007H13.4999C14.2907 3.00007 14.9385 3.61197 14.9958 4.38812L14.9999 4.50007V6.51477L16.4245 7.93938C16.9795 8.49437 17.0088 9.37597 16.5122 9.96534L16.4245 10.0608L14.9999 11.4854V13.5001C14.9999 14.2908 14.388 14.9387 13.6119 14.996L13.4999 15.0001H11.4852L10.0606 16.4247C9.50565 16.9796 8.62406 17.0089 8.03469 16.5123L7.93927 16.4247L6.51466 15.0001H4.49993C3.70916 15.0001 3.06131 14.3881 3.00404 13.612L2.99993 13.5001V11.4853L1.57532 10.0608C1.02037 9.50576 0.991163 8.62417 1.4877 8.0348L1.57533 7.93938L2.99993 6.5148V4.50007C2.99993 3.70929 3.61184 3.06144 4.38798 3.00418L4.49993 3.00007H6.51466L7.93927 1.57545ZM11.3095 6.73699L8.1261 9.92035L6.80028 8.59458C6.50739 8.3017 6.03252 8.3017 5.73962 8.59458C5.44673 8.88745 5.44673 9.36235 5.73962 9.65523L7.54275 11.4584C7.86495 11.7805 8.38732 11.7805 8.70945 11.4584L12.3702 7.79763C12.6631 7.50475 12.6631 7.02988 12.3702 6.73699C12.0772 6.4441 11.6024 6.4441 11.3095 6.73699Z"
        fill="currentColor" />
</svg>