<svg width="19" height="18" viewBox="0 0 19 18" fill="none" xmlns="http://www.w3.org/2000/svg">
    <path
        d="M9.80585 1.5C13.9479 1.5 17.3058 4.85786 17.3058 9C17.3058 13.1421 13.9479 16.5 9.80585 16.5C5.66371 16.5 2.30585 13.1421 2.30585 9C2.30585 4.85786 5.66371 1.5 9.80585 1.5ZM9.80585 4.5C9.39162 4.5 9.05585 4.83579 9.05585 5.25V9C9.05585 9.1989 9.1349 9.3897 9.27552 9.53032L11.5255 11.7803C11.8184 12.0732 12.2933 12.0732 12.5862 11.7803C12.879 11.4874 12.879 11.0126 12.5862 10.7197L10.5558 8.68935V5.25C10.5558 4.83579 10.2201 4.5 9.80585 4.5Z"
        fill="currentColor" />
</svg>